<svg width="129" height="46" viewBox="0 0 129 46" fill="none" xmlns="http://www.w3.org/2000/svg">
<g filter="url(#filter0_d_213_2)">
<path d="M4.84 29L5.32 25.16V0.776H11.656V24.392H31.528L33.448 28.472C33.448 28.6 33.016 28.728 32.152 28.856C31.288 28.952 29.8 29 27.688 29H4.84ZM42.6423 29C40.4983 29 38.8983 28.568 37.8423 27.704C36.8183 26.84 36.3063 25.432 36.3063 23.48V13.64C36.3063 13.16 36.3383 12.584 36.4023 11.912C36.4983 11.208 36.7223 10.52 37.0742 9.848C37.4583 9.176 38.0823 8.616 38.9463 8.168C39.8423 7.72 41.0743 7.496 42.6423 7.496H55.8903C57.4903 7.496 58.7223 7.72 59.5863 8.168C60.4503 8.616 61.0583 9.176 61.4103 9.848C61.7943 10.52 62.0183 11.208 62.0823 11.912C62.1783 12.584 62.2263 13.16 62.2263 13.64V22.856C62.2263 23.432 62.1783 24.072 62.0823 24.776C62.0183 25.48 61.7943 26.152 61.4103 26.792C61.0263 27.432 60.4023 27.96 59.5383 28.376C58.6743 28.792 57.4583 29 55.8903 29H42.6423ZM44.4663 24.872H54.0663C55.6343 24.872 56.4183 24.232 56.4183 22.952V13.544C56.4183 12.264 55.6343 11.624 54.0663 11.624H44.4663C42.9303 11.624 42.1623 12.264 42.1623 13.544V22.952C42.1623 24.232 42.9303 24.872 44.4663 24.872ZM83.2814 37.448C79.7614 37.448 76.8974 37.416 74.6894 37.352C72.4814 37.288 70.7854 37.192 69.6014 37.064C68.4174 36.936 67.6014 36.776 67.1534 36.584C66.7374 36.392 66.5294 36.184 66.5294 35.96L67.9694 32.36C68.4814 32.52 69.3774 32.712 70.6574 32.936C71.9694 33.192 73.6334 33.32 75.6494 33.32H83.8574C85.0414 33.32 85.8734 33.144 86.3534 32.792C86.8654 32.44 87.1214 31.816 87.1214 30.92V28.04C85.7454 28.296 84.1134 28.52 82.2254 28.712C80.3694 28.904 78.2254 29 75.7934 29H73.3934C71.7934 29 70.5614 28.792 69.6974 28.376C68.8334 27.96 68.2094 27.432 67.8254 26.792C67.4734 26.152 67.2494 25.48 67.1534 24.776C67.0894 24.072 67.0574 23.432 67.0574 22.856V13.64C67.0574 13.16 67.0894 12.584 67.1534 11.912C67.2494 11.208 67.4734 10.52 67.8254 9.848C68.2094 9.176 68.8334 8.616 69.6974 8.168C70.5934 7.72 71.8254 7.496 73.3934 7.496H75.8414C79.2014 7.496 81.8094 7.56 83.6654 7.688C85.5534 7.816 86.9294 7.96 87.7934 8.12L89.0414 7.496H92.9774V31.304C92.9774 31.88 92.8814 32.52 92.6894 33.224C92.5294 33.928 92.1934 34.6 91.6814 35.24C91.1694 35.88 90.4334 36.408 89.4734 36.824C88.5134 37.24 87.2494 37.448 85.6814 37.448H83.2814ZM75.2174 24.872H85.6334C86.3694 24.872 86.8014 24.808 86.9294 24.68C87.0574 24.552 87.1214 24.136 87.1214 23.432V11.96C86.0334 11.896 84.6574 11.832 82.9934 11.768C81.3294 11.672 79.5534 11.624 77.6654 11.624H75.2174C73.6814 11.624 72.9134 12.264 72.9134 13.544V22.952C72.8814 24.232 73.6494 24.872 75.2174 24.872ZM104.611 29C102.467 29 100.867 28.568 99.811 27.704C98.787 26.84 98.275 25.432 98.275 23.48V13.64C98.275 13.16 98.307 12.584 98.371 11.912C98.467 11.208 98.691 10.52 99.043 9.848C99.427 9.176 100.051 8.616 100.915 8.168C101.811 7.72 103.043 7.496 104.611 7.496H117.859C119.459 7.496 120.691 7.72 121.555 8.168C122.419 8.616 123.027 9.176 123.379 9.848C123.763 10.52 123.987 11.208 124.051 11.912C124.147 12.584 124.195 13.16 124.195 13.64V22.856C124.195 23.432 124.147 24.072 124.051 24.776C123.987 25.48 123.763 26.152 123.379 26.792C122.995 27.432 122.371 27.96 121.507 28.376C120.643 28.792 119.427 29 117.859 29H104.611ZM106.435 24.872H116.035C117.603 24.872 118.387 24.232 118.387 22.952V13.544C118.387 12.264 117.603 11.624 116.035 11.624H106.435C104.899 11.624 104.131 12.264 104.131 13.544V22.952C104.131 24.232 104.899 24.872 106.435 24.872Z" fill="#FFFBFB"/>
<path d="M4.84 29L3.84772 28.876L3.70722 30H4.84V29ZM5.32 25.16L6.31228 25.284L6.32 25.2223V25.16H5.32ZM5.32 0.776V-0.224H4.32V0.776H5.32ZM11.656 0.776H12.656V-0.224H11.656V0.776ZM11.656 24.392H10.656V25.392H11.656V24.392ZM31.528 24.392L32.4328 23.9662L32.1626 23.392H31.528V24.392ZM33.448 28.472H34.448V28.2485L34.3528 28.0462L33.448 28.472ZM32.152 28.856L32.2624 29.8499L32.2805 29.8479L32.2986 29.8452L32.152 28.856ZM5.83228 29.124L6.31228 25.284L4.32772 25.036L3.84772 28.876L5.83228 29.124ZM6.32 25.16V0.776H4.32V25.16H6.32ZM5.32 1.776H11.656V-0.224H5.32V1.776ZM10.656 0.776V24.392H12.656V0.776H10.656ZM11.656 25.392H31.528V23.392H11.656V25.392ZM30.6232 24.8178L32.5432 28.8978L34.3528 28.0462L32.4328 23.9662L30.6232 24.8178ZM32.448 28.472C32.448 28.1873 32.5724 27.9831 32.6635 27.8751C32.7486 27.7742 32.8311 27.7232 32.8572 27.7077C32.9091 27.677 32.9208 27.6812 32.8399 27.7052C32.6933 27.7487 32.4255 27.8046 32.0055 27.8668L32.2986 29.8452C32.7425 29.7794 33.1227 29.7073 33.4081 29.6228C33.5432 29.5828 33.717 29.523 33.8768 29.4283C33.9558 29.3815 34.448 29.0914 34.448 28.472H32.448ZM32.0416 27.8621C31.2385 27.9513 29.8003 28 27.688 28V30C29.7997 30 31.3375 29.9527 32.2624 29.8499L32.0416 27.8621ZM27.688 28H4.84V30H27.688V28ZM37.8423 27.704L37.1974 28.4683L37.2032 28.4732L37.209 28.478L37.8423 27.704ZM36.4023 11.912L35.4114 11.7769L35.4087 11.797L35.4068 11.8172L36.4023 11.912ZM37.0742 9.848L36.206 9.35186L36.1969 9.36777L36.1884 9.38399L37.0742 9.848ZM38.9463 8.168L38.499 7.27357L38.4925 7.27686L38.4859 7.28024L38.9463 8.168ZM61.4103 9.848L60.5244 10.312L60.5329 10.3282L60.542 10.3441L61.4103 9.848ZM62.0823 11.912L61.0864 12.0025L61.0887 12.0281L61.0923 12.0534L62.0823 11.912ZM62.0823 24.776L61.0914 24.6409L61.0884 24.6631L61.0864 24.6855L62.0823 24.776ZM61.4103 26.792L60.5528 26.2775L60.5528 26.2775L61.4103 26.792ZM59.5383 28.376L59.1044 27.475L59.5383 28.376ZM42.6423 28C40.6047 28 39.2758 27.5848 38.4755 26.93L37.209 28.478C38.5207 29.5512 40.3918 30 42.6423 30V28ZM38.4871 26.9397C37.7761 26.3398 37.3063 25.2757 37.3063 23.48H35.3063C35.3063 25.5883 35.8604 27.3402 37.1974 28.4683L38.4871 26.9397ZM37.3063 23.48V13.64H35.3063V23.48H37.3063ZM37.3063 13.64C37.3063 13.2015 37.3356 12.6589 37.3977 12.0068L35.4068 11.8172C35.3409 12.5091 35.3063 13.1185 35.3063 13.64H37.3063ZM37.3931 12.0471C37.4724 11.4656 37.6582 10.8883 37.9601 10.312L36.1884 9.38399C35.7863 10.1517 35.5241 10.9504 35.4114 11.7769L37.3931 12.0471ZM37.9425 10.3441C38.2092 9.87744 38.6696 9.4379 39.4066 9.05575L38.4859 7.28024C37.4949 7.79409 36.7073 8.47456 36.206 9.35186L37.9425 10.3441ZM39.3935 9.06243C40.094 8.71218 41.1505 8.496 42.6423 8.496V6.496C40.998 6.496 39.5905 6.72782 38.499 7.27357L39.3935 9.06243ZM42.6423 8.496H55.8903V6.496H42.6423V8.496ZM55.8903 8.496C57.4213 8.496 58.4676 8.7144 59.1259 9.05575L60.0466 7.28024C58.9769 6.7256 57.5592 6.496 55.8903 6.496V8.496ZM59.1259 9.05575C59.8594 9.43607 60.2912 9.86679 60.5244 10.312L62.2961 9.38399C61.8253 8.4852 61.0411 7.79593 60.0466 7.28024L59.1259 9.05575ZM60.542 10.3441C60.8617 10.9036 61.0365 11.4544 61.0864 12.0025L63.0781 11.8215C63 10.9616 62.7268 10.1364 62.2785 9.35186L60.542 10.3441ZM61.0923 12.0534C61.1841 12.6961 61.2263 13.2222 61.2263 13.64H63.2263C63.2263 13.0978 63.1724 12.4719 63.0722 11.7706L61.0923 12.0534ZM61.2263 13.64V22.856H63.2263V13.64H61.2263ZM61.2263 22.856C61.2263 23.3778 61.1827 23.9718 61.0914 24.6409L63.0731 24.9111C63.1738 24.1722 63.2263 23.4862 63.2263 22.856H61.2263ZM61.0864 24.6855C61.0367 25.2312 60.8637 25.7592 60.5528 26.2775L62.2677 27.3065C62.7248 26.5448 62.9998 25.7288 63.0781 24.8665L61.0864 24.6855ZM60.5528 26.2775C60.2943 26.7083 59.8422 27.1198 59.1044 27.475L59.9721 29.277C60.9623 28.8002 61.7582 28.1557 62.2677 27.3065L60.5528 26.2775ZM59.1044 27.475C58.4353 27.7972 57.3922 28 55.8903 28V30C57.5243 30 58.9132 29.7868 59.9721 29.277L59.1044 27.475ZM55.8903 28H42.6423V30H55.8903V28ZM44.4663 25.872H54.0663V23.872H44.4663V25.872ZM54.0663 25.872C54.9607 25.872 55.8172 25.6936 56.4626 25.1667C57.1469 24.6081 57.4183 23.8058 57.4183 22.952H55.4183C55.4183 23.3782 55.2976 23.5359 55.1979 23.6173C55.0593 23.7304 54.7398 23.872 54.0663 23.872V25.872ZM57.4183 22.952V13.544H55.4183V22.952H57.4183ZM57.4183 13.544C57.4183 12.6902 57.1469 11.8879 56.4626 11.3293C55.8172 10.8024 54.9607 10.624 54.0663 10.624V12.624C54.7398 12.624 55.0593 12.7656 55.1979 12.8787C55.2976 12.9601 55.4183 13.1178 55.4183 13.544H57.4183ZM54.0663 10.624H44.4663V12.624H54.0663V10.624ZM44.4663 10.624C43.584 10.624 42.7362 10.804 42.0981 11.3358C41.425 11.8966 41.1623 12.6971 41.1623 13.544H43.1623C43.1623 13.1109 43.2835 12.9514 43.3784 12.8722C43.5083 12.764 43.8125 12.624 44.4663 12.624V10.624ZM41.1623 13.544V22.952H43.1623V13.544H41.1623ZM41.1623 22.952C41.1623 23.7989 41.425 24.5994 42.0981 25.1602C42.7362 25.692 43.584 25.872 44.4663 25.872V23.872C43.8125 23.872 43.5083 23.732 43.3784 23.6238C43.2835 23.5446 43.1623 23.3851 43.1623 22.952H41.1623ZM69.6014 37.064L69.4939 38.0582L69.4939 38.0582L69.6014 37.064ZM67.1534 36.584L66.7343 37.492L66.7468 37.4977L66.7595 37.5031L67.1534 36.584ZM66.5294 35.96L65.6009 35.5886L65.5294 35.7674V35.96H66.5294ZM67.9694 32.36L68.2677 31.4055L67.3845 31.1295L67.0409 31.9886L67.9694 32.36ZM70.6574 32.936L70.8489 31.9545L70.8393 31.9526L70.8298 31.951L70.6574 32.936ZM86.3534 32.792L85.7868 31.968L85.7743 31.9766L85.762 31.9856L86.3534 32.792ZM87.1214 28.04H88.1214V26.8368L86.9385 27.0569L87.1214 28.04ZM82.2254 28.712L82.1242 27.7171L82.1225 27.7173L82.2254 28.712ZM69.6974 28.376L70.1312 27.475L70.1312 27.475L69.6974 28.376ZM67.8254 26.792L66.9492 27.2739L66.9582 27.2904L66.9679 27.3065L67.8254 26.792ZM67.1534 24.776L66.1575 24.8665L66.1595 24.8889L66.1625 24.9111L67.1534 24.776ZM67.1534 11.912L66.1625 11.7769L66.1598 11.797L66.1579 11.8172L67.1534 11.912ZM67.8254 9.848L66.9571 9.35186L66.948 9.36776L66.9395 9.38399L67.8254 9.848ZM69.6974 8.168L69.2502 7.27357L69.2436 7.27686L69.2371 7.28024L69.6974 8.168ZM83.6654 7.688L83.5966 8.68563L83.5977 8.68571L83.6654 7.688ZM87.7934 8.12L87.6113 9.10328L87.9408 9.16431L88.2406 9.01443L87.7934 8.12ZM89.0414 7.496V6.496H88.8053L88.5942 6.60157L89.0414 7.496ZM92.9774 7.496H93.9774V6.496H92.9774V7.496ZM92.6894 33.224L91.7246 32.9609L91.719 32.9815L91.7142 33.0024L92.6894 33.224ZM91.6814 35.24L90.9005 34.6153L90.9005 34.6153L91.6814 35.24ZM89.4734 36.824L89.0758 35.9064L89.0758 35.9064L89.4734 36.824ZM86.9294 24.68L87.6365 25.3871L87.6365 25.3871L86.9294 24.68ZM87.1214 11.96H88.1214V11.0171L87.1801 10.9617L87.1214 11.96ZM82.9934 11.768L82.9358 12.7663L82.9454 12.7669L82.9549 12.7673L82.9934 11.768ZM72.9134 22.952L73.9131 22.977L73.9134 22.9645V22.952H72.9134ZM83.2814 36.448C79.7661 36.448 76.9128 36.416 74.7183 36.3524L74.6604 38.3516C76.882 38.416 79.7566 38.448 83.2814 38.448V36.448ZM74.7183 36.3524C72.5185 36.2887 70.8535 36.1935 69.7089 36.0698L69.4939 38.0582C70.7173 38.1905 72.4443 38.2873 74.6604 38.3516L74.7183 36.3524ZM69.7089 36.0698C68.522 35.9415 67.8427 35.7915 67.5473 35.6649L66.7595 37.5031C67.36 37.7605 68.3127 37.9305 69.4939 38.0582L69.7089 36.0698ZM67.5724 35.676C67.5008 35.643 67.4516 35.6154 67.42 35.5951C67.3877 35.5744 67.3826 35.567 67.3925 35.5769C67.4026 35.587 67.4369 35.6238 67.4694 35.6912C67.5039 35.7628 67.5294 35.8554 67.5294 35.96H65.5294C65.5294 36.4126 65.7477 36.7606 65.9783 36.9911C66.1988 37.2117 66.4722 37.371 66.7343 37.492L67.5724 35.676ZM67.4579 36.3314L68.8979 32.7314L67.0409 31.9886L65.6009 35.5886L67.4579 36.3314ZM67.6711 33.3145C68.2516 33.4959 69.2053 33.6971 70.485 33.921L70.8298 31.951C69.5495 31.7269 68.7111 31.5441 68.2677 31.4055L67.6711 33.3145ZM70.4659 33.9175C71.8641 34.1903 73.598 34.32 75.6494 34.32V32.32C73.6688 32.32 72.0747 32.1937 70.8489 31.9545L70.4659 33.9175ZM75.6494 34.32H83.8574V32.32H75.6494V34.32ZM83.8574 34.32C85.078 34.32 86.1915 34.1508 86.9447 33.5984L85.762 31.9856C85.5553 32.1372 85.0047 32.32 83.8574 32.32V34.32ZM86.9199 33.616C87.8103 33.0039 88.1214 31.9896 88.1214 30.92H86.1214C86.1214 31.6424 85.9204 31.8761 85.7868 31.968L86.9199 33.616ZM88.1214 30.92V28.04H86.1214V30.92H88.1214ZM86.9385 27.0569C85.5971 27.3064 83.9937 27.527 82.1242 27.7171L82.3265 29.7069C84.233 29.513 85.8936 29.2856 87.3043 29.0231L86.9385 27.0569ZM82.1225 27.7173C80.3091 27.9049 78.2007 28 75.7934 28V30C78.2501 30 80.4297 29.9031 82.3283 29.7067L82.1225 27.7173ZM75.7934 28H73.3934V30H75.7934V28ZM73.3934 28C71.8558 28 70.7983 27.7962 70.1312 27.475L69.2636 29.277C70.3244 29.7878 71.731 30 73.3934 30V28ZM70.1312 27.475C69.3935 27.1198 68.9414 26.7083 68.6829 26.2775L66.9679 27.3065C67.4774 28.1557 68.2733 28.8002 69.2636 29.277L70.1312 27.475ZM68.7016 26.3101C68.4071 25.7746 68.2231 25.2198 68.1442 24.6409L66.1625 24.9111C66.2756 25.7402 66.5397 26.5294 66.9492 27.2739L68.7016 26.3101ZM68.1493 24.6855C68.0874 24.0051 68.0574 23.3959 68.0574 22.856H66.0574C66.0574 23.4681 66.0913 24.1389 66.1575 24.8665L68.1493 24.6855ZM68.0574 22.856V13.64H66.0574V22.856H68.0574ZM68.0574 13.64C68.0574 13.2015 68.0868 12.6589 68.1489 12.0068L66.1579 11.8172C66.092 12.5091 66.0574 13.1185 66.0574 13.64H68.0574ZM68.1442 12.0471C68.2235 11.4656 68.4093 10.8883 68.7112 10.312L66.9395 9.38399C66.5374 10.1517 66.2752 10.9504 66.1625 11.7769L68.1442 12.0471ZM68.6936 10.3441C68.9603 9.87744 69.4207 9.4379 70.1577 9.05575L69.2371 7.28024C68.2461 7.79409 67.4584 8.47456 66.9571 9.35186L68.6936 10.3441ZM70.1446 9.06243C70.8451 8.71218 71.9016 8.496 73.3934 8.496V6.496C71.7491 6.496 70.3417 6.72782 69.2502 7.27357L70.1446 9.06243ZM73.3934 8.496H75.8414V6.496H73.3934V8.496ZM75.8414 8.496C79.1935 8.496 81.7748 8.55999 83.5966 8.68563L83.7342 6.69037C81.844 6.56001 79.2092 6.496 75.8414 6.496V8.496ZM83.5977 8.68571C85.4806 8.81336 86.8078 8.95449 87.6113 9.10328L87.9755 7.13672C87.051 6.96551 85.6261 6.81863 83.733 6.69029L83.5977 8.68571ZM88.2406 9.01443L89.4886 8.39043L88.5942 6.60157L87.3462 7.22557L88.2406 9.01443ZM89.0414 8.496H92.9774V6.496H89.0414V8.496ZM91.9774 7.496V31.304H93.9774V7.496H91.9774ZM91.9774 31.304C91.9774 31.7712 91.8991 32.321 91.7246 32.9609L93.6541 33.4871C93.8636 32.719 93.9774 31.9888 93.9774 31.304H91.9774ZM91.7142 33.0024C91.592 33.5403 91.331 34.0772 90.9005 34.6153L92.4622 35.8647C93.0558 35.1228 93.4668 34.3157 93.6645 33.4456L91.7142 33.0024ZM90.9005 34.6153C90.5148 35.0975 89.9264 35.5378 89.0758 35.9064L89.871 37.7416C90.9404 37.2782 91.824 36.6625 92.4622 35.8647L90.9005 34.6153ZM89.0758 35.9064C88.2878 36.2479 87.1745 36.448 85.6814 36.448V38.448C87.3242 38.448 88.739 38.2321 89.871 37.7416L89.0758 35.9064ZM85.6814 36.448H83.2814V38.448H85.6814V36.448ZM75.2174 25.872H85.6334V23.872H75.2174V25.872ZM85.6334 25.872C86.0221 25.872 86.3697 25.8556 86.6559 25.8132C86.7988 25.792 86.9527 25.7607 87.1007 25.7099C87.234 25.6642 87.4493 25.5743 87.6365 25.3871L86.2223 23.9729C86.2891 23.9061 86.3508 23.8677 86.3859 23.8484C86.422 23.8286 86.4467 23.8199 86.4521 23.8181C86.4601 23.8153 86.436 23.824 86.3628 23.8348C86.217 23.8564 85.9807 23.872 85.6334 23.872V25.872ZM87.6365 25.3871C87.8185 25.2051 87.909 24.9972 87.9564 24.8628C88.0081 24.7161 88.0402 24.5643 88.0617 24.4241C88.1049 24.1435 88.1214 23.8059 88.1214 23.432H86.1214C86.1214 23.7621 86.1058 23.9845 86.085 24.1199C86.0746 24.1877 86.0666 24.2079 86.0704 24.1972C86.0728 24.1904 86.0819 24.1655 86.1019 24.1299C86.1214 24.095 86.1588 24.0364 86.2223 23.9729L87.6365 25.3871ZM88.1214 23.432V11.96H86.1214V23.432H88.1214ZM87.1801 10.9617C86.0828 10.8972 84.6995 10.8329 83.0318 10.7687L82.9549 12.7673C84.6153 12.8311 85.9839 12.8948 87.0627 12.9583L87.1801 10.9617ZM83.051 10.7697C81.3655 10.6724 79.5701 10.624 77.6654 10.624V12.624C79.5366 12.624 81.2933 12.6716 82.9358 12.7663L83.051 10.7697ZM77.6654 10.624H75.2174V12.624H77.6654V10.624ZM75.2174 10.624C74.3351 10.624 73.4873 10.804 72.8492 11.3358C72.1762 11.8966 71.9134 12.6971 71.9134 13.544H73.9134C73.9134 13.1109 74.0346 12.9514 74.1296 12.8722C74.2595 12.764 74.5636 12.624 75.2174 12.624V10.624ZM71.9134 13.544V22.952H73.9134V13.544H71.9134ZM71.9137 22.927C71.8924 23.779 72.143 24.5917 72.8252 25.1602C73.4663 25.6945 74.3252 25.872 75.2174 25.872V23.872C74.5415 23.872 74.2324 23.7295 74.1056 23.6238C74.0198 23.5523 73.9024 23.405 73.9131 22.977L71.9137 22.927ZM99.811 27.704L99.1661 28.4683L99.1719 28.4732L99.1778 28.478L99.811 27.704ZM98.371 11.912L97.3802 11.7769L97.3774 11.797L97.3755 11.8172L98.371 11.912ZM99.043 9.848L98.1748 9.35186L98.1657 9.36777L98.1572 9.38399L99.043 9.848ZM100.915 8.168L100.468 7.27357L100.461 7.27686L100.455 7.28024L100.915 8.168ZM123.379 9.848L122.493 10.312L122.502 10.3282L122.511 10.3441L123.379 9.848ZM124.051 11.912L123.055 12.0025L123.057 12.0281L123.061 12.0534L124.051 11.912ZM124.051 24.776L123.06 24.6409L123.057 24.6631L123.055 24.6855L124.051 24.776ZM123.379 26.792L122.522 26.2775L122.522 26.2775L123.379 26.792ZM121.507 28.376L121.073 27.475L121.507 28.376ZM104.611 28C102.573 28 101.245 27.5848 100.444 26.93L99.1778 28.478C100.489 29.5512 102.361 30 104.611 30V28ZM100.456 26.9397C99.7448 26.3398 99.275 25.2757 99.275 23.48H97.275C97.275 25.5883 97.8292 27.3402 99.1661 28.4683L100.456 26.9397ZM99.275 23.48V13.64H97.275V23.48H99.275ZM99.275 13.64C99.275 13.2015 99.3044 12.6589 99.3665 12.0068L97.3755 11.8172C97.3096 12.5091 97.275 13.1185 97.275 13.64H99.275ZM99.3618 12.0471C99.4411 11.4656 99.627 10.8883 99.9288 10.312L98.1572 9.38399C97.755 10.1517 97.4929 10.9504 97.3802 11.7769L99.3618 12.0471ZM99.9112 10.3441C100.178 9.87744 100.638 9.4379 101.375 9.05575L100.455 7.28024C99.4637 7.79409 98.6761 8.47456 98.1748 9.35186L99.9112 10.3441ZM101.362 9.06243C102.063 8.71218 103.119 8.496 104.611 8.496V6.496C102.967 6.496 101.559 6.72782 100.468 7.27357L101.362 9.06243ZM104.611 8.496H117.859V6.496H104.611V8.496ZM117.859 8.496C119.39 8.496 120.436 8.7144 121.095 9.05575L122.015 7.28024C120.946 6.7256 119.528 6.496 117.859 6.496V8.496ZM121.095 9.05575C121.828 9.43607 122.26 9.86679 122.493 10.312L124.265 9.38399C123.794 8.4852 123.01 7.79593 122.015 7.28024L121.095 9.05575ZM122.511 10.3441C122.83 10.9036 123.005 11.4544 123.055 12.0025L125.047 11.8215C124.969 10.9616 124.696 10.1364 124.247 9.35186L122.511 10.3441ZM123.061 12.0534C123.153 12.6961 123.195 13.2222 123.195 13.64H125.195C125.195 13.0978 125.141 12.4719 125.041 11.7706L123.061 12.0534ZM123.195 13.64V22.856H125.195V13.64H123.195ZM123.195 22.856C123.195 23.3778 123.151 23.9718 123.06 24.6409L125.042 24.9111C125.143 24.1722 125.195 23.4862 125.195 22.856H123.195ZM123.055 24.6855C123.005 25.2312 122.832 25.7592 122.522 26.2775L124.236 27.3065C124.694 26.5448 124.969 25.7288 125.047 24.8665L123.055 24.6855ZM122.522 26.2775C122.263 26.7083 121.811 27.1198 121.073 27.475L121.941 29.277C122.931 28.8002 123.727 28.1557 124.236 27.3065L122.522 26.2775ZM121.073 27.475C120.404 27.7972 119.361 28 117.859 28V30C119.493 30 120.882 29.7868 121.941 29.277L121.073 27.475ZM117.859 28H104.611V30H117.859V28ZM106.435 25.872H116.035V23.872H106.435V25.872ZM116.035 25.872C116.929 25.872 117.786 25.6936 118.431 25.1667C119.116 24.6081 119.387 23.8058 119.387 22.952H117.387C117.387 23.3782 117.266 23.5359 117.167 23.6173C117.028 23.7304 116.709 23.872 116.035 23.872V25.872ZM119.387 22.952V13.544H117.387V22.952H119.387ZM119.387 13.544C119.387 12.6902 119.116 11.8879 118.431 11.3293C117.786 10.8024 116.929 10.624 116.035 10.624V12.624C116.709 12.624 117.028 12.7656 117.167 12.8787C117.266 12.9601 117.387 13.1178 117.387 13.544H119.387ZM116.035 10.624H106.435V12.624H116.035V10.624ZM106.435 10.624C105.553 10.624 104.705 10.804 104.067 11.3358C103.394 11.8966 103.131 12.6971 103.131 13.544H105.131C105.131 13.1109 105.252 12.9514 105.347 12.8722C105.477 12.764 105.781 12.624 106.435 12.624V10.624ZM103.131 13.544V22.952H105.131V13.544H103.131ZM103.131 22.952C103.131 23.7989 103.394 24.5994 104.067 25.1602C104.705 25.692 105.553 25.872 106.435 25.872V23.872C105.781 23.872 105.477 23.732 105.347 23.6238C105.252 23.5446 105.131 23.3851 105.131 22.952H103.131Z" fill="white"/>
</g>
<defs>
<filter id="filter0_d_213_2" x="0.840088" y="0.776001" width="127.355" height="44.672" filterUnits="userSpaceOnUse" color-interpolation-filters="sRGB">
<feFlood flood-opacity="0" result="BackgroundImageFix"/>
<feColorMatrix in="SourceAlpha" type="matrix" values="0 0 0 0 0 0 0 0 0 0 0 0 0 0 0 0 0 0 127 0" result="hardAlpha"/>
<feOffset dy="4"/>
<feGaussianBlur stdDeviation="2"/>
<feComposite in2="hardAlpha" operator="out"/>
<feColorMatrix type="matrix" values="0 0 0 0 0 0 0 0 0 0 0 0 0 0 0 0 0 0 0.25 0"/>
<feBlend mode="normal" in2="BackgroundImageFix" result="effect1_dropShadow_213_2"/>
<feBlend mode="normal" in="SourceGraphic" in2="effect1_dropShadow_213_2" result="shape"/>
</filter>
</defs>
</svg>
